<?xml version="1.0"?><svg width="1000" height="1000" xmlns="http://www.w3.org/2000/svg">
 <title>Bike trail</title>

 <g>
  <title>Layer 1</title>
  <g id="Layer_1">
   <g id="svg_1">
    <g id="surface0">
     <path id="svg_2" d="m608.254578,207.00235c19.982544,-1.89061 41.113159,6.32872 53.651917,22.226395c8.787842,9.913956 12.651917,23.101288 14.117493,36.02092c-0.695618,16.543488 -7.374756,33.04837 -19.794861,44.267792c-16.604248,15.663086 -42.589722,20.603516 -63.759033,11.975708c-30.580933,-10.518372 -48.628662,-49.544983 -33.434814,-78.941833c8.448364,-19.775513 28.130005,-33.012512 49.219299,-35.548981z" stroke-miterlimit="10" stroke-width="0.1" stroke="#000000" fill="none"/>
     <path id="svg_3" d="m608.254578,207.00235c19.982544,-1.89061 41.113159,6.32872 53.651917,22.226395c8.787842,9.913956 12.651917,23.101288 14.117493,36.02092c-0.695618,16.543488 -7.374756,33.04837 -19.794861,44.267792c-16.604248,15.663086 -42.589722,20.603516 -63.759033,11.975708c-30.580933,-10.518372 -48.628662,-49.544983 -33.434814,-78.941833c8.448364,-19.775513 28.130005,-33.012512 49.219299,-35.548981z"/>
     <path id="svg_4" d="m490.429688,325.787781c2.616486,-12.966583 16.96582,-16.209595 27.729858,-19.58783c10.786072,2.472961 21.045044,7.934998 27.713257,16.979614c9.555176,13.399841 16.502075,28.400513 24.268799,42.849182c12.364868,20.661438 29.843994,38.132324 50.257019,50.864258c21.406616,12.602173 43.43988,24.326752 66.795105,32.937988c19.317261,8.539459 40.919861,7.452026 61.374329,11.084198l-0.234558,3.4776c-30.21936,0.402985 -60.775513,2.964264 -90.685669,-2.649597c-33.415527,-5.417938 -66.789551,-14.851654 -95.606873,-33.1008c-21.886902,-15.483704 -40.508667,-35.319916 -55.981354,-57.129517c-8.702301,-13.479889 -18.831512,-28.933197 -15.629913,-45.725098z" stroke-miterlimit="10" stroke-width="0.1" stroke="#000000" fill="none"/>
     <path id="svg_5" d="m490.429688,325.787781c2.616486,-12.966583 16.96582,-16.209595 27.729858,-19.58783c10.786072,2.472961 21.045044,7.934998 27.713257,16.979614c9.555176,13.399841 16.502075,28.400513 24.268799,42.849182c12.364868,20.661438 29.843994,38.132324 50.257019,50.864258c21.406616,12.602173 43.43988,24.326752 66.795105,32.937988c19.317261,8.539459 40.919861,7.452026 61.374329,11.084198l-0.234558,3.4776c-30.21936,0.402985 -60.775513,2.964264 -90.685669,-2.649597c-33.415527,-5.417938 -66.789551,-14.851654 -95.606873,-33.1008c-21.886902,-15.483704 -40.508667,-35.319916 -55.981354,-57.129517c-8.702301,-13.479889 -18.831512,-28.933197 -15.629913,-45.725098z"/>
     <path id="svg_6" d="m371.172302,454.85144c4.496063,-7.871552 12.511108,-12.47525 20.225342,-16.651184c11.280212,1.526337 22.173981,7.278198 27.873383,17.457092c14.901337,25.306549 15.701721,55.572845 18.343018,84.036865c7.264404,71.194519 11.351959,142.653992 14.882019,214.116272c1.073639,26.722412 3.916473,53.417236 2.536438,80.189331c-3.908142,-2.37915 -5.321289,-6.800659 -6.784119,-10.838501c-20.280609,-58.752502 -35.10733,-119.135925 -50.375702,-179.326355c-12.516693,-43.017517 -20.898834,-87.061768 -30.9729,-130.678223c-4.026825,-19.121399 -6.836517,-40.958649 4.272522,-58.305298z" stroke-miterlimit="10" stroke-width="0.1" stroke="#000000" fill="none"/>
     <path id="svg_7" d="m371.172302,454.85144c4.496063,-7.871552 12.511108,-12.47525 20.225342,-16.651184c11.280212,1.526337 22.173981,7.278198 27.873383,17.457092c14.901337,25.306549 15.701721,55.572845 18.343018,84.036865c7.264404,71.194519 11.351959,142.653992 14.882019,214.116272c1.073639,26.722412 3.916473,53.417236 2.536438,80.189331c-3.908142,-2.37915 -5.321289,-6.800659 -6.784119,-10.838501c-20.280609,-58.752502 -35.10733,-119.135925 -50.375702,-179.326355c-12.516693,-43.017517 -20.898834,-87.061768 -30.9729,-130.678223c-4.026825,-19.121399 -6.836517,-40.958649 4.272522,-58.305298z"/>
     <path id="svg_8" d="m453.136353,443.502258c16.805756,-0.135254 34.111023,-0.080048 50.000397,6.157593c21.238251,8.230347 40.144379,21.299011 58.586761,34.444946c16.090881,12.367645 29.537598,33.360229 22.883179,54.242493c-5.500671,24.133606 -22.038635,43.484009 -38.813965,60.819702c-22.154663,21.977905 -43.884247,44.378174 -65.122498,67.244873c-4.233856,4.269775 -8.43457,9.265381 -14.697052,10.355591c-0.460907,-9.259888 3.999298,-17.567444 8.142059,-25.51355c12.063965,-21.464661 21.815094,-44.110535 32.830353,-66.116089c7.750092,-18.218872 19.615448,-34.49469 25.817108,-53.38147c-23.526337,-7.250488 -47.052673,-15.334595 -68.65802,-27.274384c-11.500977,-7.427155 -25.654358,-16.728394 -25.728821,-32.068604c-1.02951,-11.741058 7.098785,-21.130615 14.760498,-28.911102z" stroke-miterlimit="10" stroke-width="0.1" stroke="#000000" fill="none"/>
     <path id="svg_9" d="m453.136353,443.502258c16.805756,-0.135254 34.111023,-0.080048 50.000397,6.157593c21.238251,8.230347 40.144379,21.299011 58.586761,34.444946c16.090881,12.367645 29.537598,33.360229 22.883179,54.242493c-5.500671,24.133606 -22.038635,43.484009 -38.813965,60.819702c-22.154663,21.977905 -43.884247,44.378174 -65.122498,67.244873c-4.233856,4.269775 -8.43457,9.265381 -14.697052,10.355591c-0.460907,-9.259888 3.999298,-17.567444 8.142059,-25.51355c12.063965,-21.464661 21.815094,-44.110535 32.830353,-66.116089c7.750092,-18.218872 19.615448,-34.49469 25.817108,-53.38147c-23.526337,-7.250488 -47.052673,-15.334595 -68.65802,-27.274384c-11.500977,-7.427155 -25.654358,-16.728394 -25.728821,-32.068604c-1.02951,-11.741058 7.098785,-21.130615 14.760498,-28.911102z"/>
     <g id="svg_10">
      <path id="svg_11" d="m743.252258,512.695801c16.339294,0 32.551514,4.43811 47.830994,10.029846c34.406311,15.48645 59.03949,48.333374 67.529297,84.771057c19.965881,77.592163 -19.803101,165.012817 -89.360962,203.791016c-20.490356,11.442932 -43.95874,17.727356 -67.42157,17.727356c-6.913879,0 -13.819397,-0.543518 -20.655945,-1.664124c-33.583801,-6.044434 -63.32843,-28.356384 -79.300659,-58.393616c-15.687927,-26.037903 -19.758972,-57.112915 -18.32373,-87.012146c4.355286,-57.063232 34.875488,-112.133789 82.692749,-144.10022c19.259338,-13.016174 41.524353,-21.787476 64.702942,-24.25769c4.098633,-0.612793 8.208252,-0.891479 12.306885,-0.891479m0.005615,16.559998c-0.002747,0 -0.002747,0 -0.005554,0l0,0c-3.386597,0 -6.706848,0.237366 -9.869812,0.709351l-0.339539,0.052429l-0.342224,0.035889c-19.698181,2.100342 -39.470886,9.538635 -57.187439,21.511597c-42.476563,28.397705 -71.340759,78.718262 -75.433777,131.409668c-1.473938,31.339905 3.902588,57.394409 15.977661,77.437622l0.229065,0.380859l0.207031,0.391968c13.651001,25.673645 39.495728,44.764526 67.473938,49.848633c5.826416,0.946594 11.8349,1.42688 17.862854,1.42688c20.523376,0 41.044128,-5.404053 59.345825,-15.624512c30.754761,-17.145142 56.030945,-45.407593 71.188904,-79.595947c15.2547,-34.403503 18.881226,-71.912048 10.20929,-105.611816l-0.049744,-0.182129l-0.044067,-0.184998c-7.534851,-32.344543 -29.603821,-60.328308 -57.667664,-73.187195c-16.54364,-6.016846 -29.764038,-8.818298 -41.554749,-8.818298l0,0z"/>
     </g>
     <g id="svg_12">
      <path id="svg_13" d="m284.22641,599.818359c24.92569,0 49.901001,7.808105 69.640625,23.156494c29.485199,22.317383 46.329559,58.586792 49.53949,94.933411c7.1539,73.27832 -32.89389,149.716797 -99.037567,183.068787c-18.679749,9.64624 -39.884918,14.86261 -60.996246,14.86261c-16.67601,0 -33.294037,-3.254028 -48.567932,-10.145752c-20.735962,-11.106201 -40.086456,-26.556824 -51.234116,-47.706726c-18.790176,-30.194641 -21.988968,-67.159485 -18.376137,-101.800354c6.270714,-36.746826 20.7967,-72.955383 46.575172,-100.414734c23.760971,-26.99292 55.614258,-48.026978 91.494461,-54.085266c6.905518,-1.244812 13.935242,-1.868469 20.96225,-1.868469m0.00827,16.560059c-0.002747,0 -0.002747,0 -0.005524,0l0,0c-6.063751,0 -12.124725,0.540894 -18.011841,1.606323l-0.096619,0.016479l-0.096558,0.016663c-29.501755,4.981812 -58.561935,22.273254 -81.820587,48.700378l-0.173859,0.195984l-0.18219,0.193176c-21.205139,22.590698 -35.802856,54.159729 -42.233643,91.337036c-3.786789,37.080872 1.603485,67.628601 16.019043,90.793396l0.311905,0.505066l0.276001,0.521606c8.241379,15.632751 23.010239,29.278198 43.900772,40.558472c12.629822,5.611023 26.507156,8.453857 41.25386,8.453857c18.445175,0 36.909683,-4.501587 53.397964,-13.016235l0.071808,-0.038696l0.071716,-0.035828c28.775879,-14.509338 53.588379,-39.227966 69.864197,-69.599182c16.159851,-30.15033 23.313812,-64.625671 20.145294,-97.075195l-0.005493,-0.074463l-0.005524,-0.077271c-3.000153,-33.962036 -19.088257,-65.059082 -43.039642,-83.186768l-0.085541,-0.063538l-0.085571,-0.063477c-16.314453,-12.68219 -37.436798,-19.667786 -59.469971,-19.667786l0,0z"/>
     </g>
     <path id="svg_14" d="m884.614685,750.208618c10.333435,-12.193726 25.077332,-19.132446 39.385315,-25.502502l0,18.572083c-11.029053,5.696655 -22.645874,11.62793 -29.755676,22.262268c-12.204895,17.702759 -25.554932,37.014587 -46.914734,44.185059c-18.608032,6.494385 -33.351868,19.943848 -49.638733,30.514587c-10.471497,6.729004 -19.816895,15.966736 -32.264587,18.917114c-30.089661,8.324341 -61.799438,0.069153 -92.109924,6.781433c-27.097778,5.279907 -48.106995,25.858582 -74.93988,31.927917c-15.254578,4.44635 -31.337097,3.524414 -47.01123,2.845398c-28.179688,-1.672485 -56.042023,-11.989502 -84.376343,-5.99469c-43.111359,9.29303 -72.908478,48.239624 -116.580139,56.135925c-13.777954,3.27887 -27.978241,2.147278 -41.764496,-0.339478c-32.038239,-4.289063 -64.26413,-7.002197 -96.434845,-10.096191c-39.534393,-3.408508 -81.737778,0.229126 -116.207527,21.495056l0,-20.12323c24.997398,-11.5672 52.293953,-18.715698 79.924446,-18.93927c29.523865,-1.112244 58.895874,2.671753 88.229309,5.398621c19.378052,2.782104 38.982361,3.57428 58.283142,6.960815c10.057526,1.948486 20.418579,0.42218 30.158661,-2.384705c40.224426,-10.72821 68.357208,-46.903625 109.831909,-54.57373c43.44809,-9.839417 86.749969,13.880127 130.079376,3.58252c21.759949,-4.43811 39.012817,-19.582214 59.558289,-27.213745c32.137573,-14.249878 67.965332,-4.082092 101.529846,-10.126465c5.997498,-1.092957 12.019775,-2.793152 16.990662,-6.474976c16.89679,-11.625122 33.840393,-23.181396 50.756531,-34.784485c9.773315,-6.786865 21.740601,-9.270813 31.74292,-15.61615c13.361267,-9.786987 21.22998,-24.809753 31.52771,-37.40918z" stroke-miterlimit="10" stroke-width="0.1" stroke="#000000" fill="none"/>
     <path id="svg_15" d="m884.614685,750.208618c10.333435,-12.193726 25.077332,-19.132446 39.385315,-25.502502l0,18.572083c-11.029053,5.696655 -22.645874,11.62793 -29.755676,22.262268c-12.204895,17.702759 -25.554932,37.014587 -46.914734,44.185059c-18.608032,6.494385 -33.351868,19.943848 -49.638733,30.514587c-10.471497,6.729004 -19.816895,15.966736 -32.264587,18.917114c-30.089661,8.324341 -61.799438,0.069153 -92.109924,6.781433c-27.097778,5.279907 -48.106995,25.858582 -74.93988,31.927917c-15.254578,4.44635 -31.337097,3.524414 -47.01123,2.845398c-28.179688,-1.672485 -56.042023,-11.989502 -84.376343,-5.99469c-43.111359,9.29303 -72.908478,48.239624 -116.580139,56.135925c-13.777954,3.27887 -27.978241,2.147278 -41.764496,-0.339478c-32.038239,-4.289063 -64.26413,-7.002197 -96.434845,-10.096191c-39.534393,-3.408508 -81.737778,0.229126 -116.207527,21.495056l0,-20.12323c24.997398,-11.5672 52.293953,-18.715698 79.924446,-18.93927c29.523865,-1.112244 58.895874,2.671753 88.229309,5.398621c19.378052,2.782104 38.982361,3.57428 58.283142,6.960815c10.057526,1.948486 20.418579,0.42218 30.158661,-2.384705c40.224426,-10.72821 68.357208,-46.903625 109.831909,-54.57373c43.44809,-9.839417 86.749969,13.880127 130.079376,3.58252c21.759949,-4.43811 39.012817,-19.582214 59.558289,-27.213745c32.137573,-14.249878 67.965332,-4.082092 101.529846,-10.126465c5.997498,-1.092957 12.019775,-2.793152 16.990662,-6.474976c16.89679,-11.625122 33.840393,-23.181396 50.756531,-34.784485c9.773315,-6.786865 21.740601,-9.270813 31.74292,-15.61615c13.361267,-9.786987 21.22998,-24.809753 31.52771,-37.40918z"/>
    </g>
   </g>
  </g>
 </g>
</svg>